<svg width="37" height="36" viewBox="0 0 37 36" fill="none" xmlns="http://www.w3.org/2000/svg">
<g clip-path="url(#clip0_3_93)">
<path d="M20.9751 1.21439C20.9751 0.545727 21.6375 0 22.4626 0C23.2876 0 23.95 0.542729 23.95 1.21439V6.52774C23.95 7.1964 23.2876 7.74213 22.4626 7.74213C21.6375 7.74213 20.9751 7.1994 20.9751 6.52774V1.21439ZM27.5121 17.1004C28.7948 17.1004 30.0203 17.3553 31.1405 17.8171C32.3057 18.2969 33.3506 18.9985 34.2238 19.8681C35.097 20.7376 35.8016 21.7811 36.2834 22.9355C36.7471 24.051 37.003 25.2714 37.003 26.5487C37.003 27.8261 36.7471 29.0465 36.2834 30.1619C35.8016 31.3223 35.097 32.3628 34.2238 33.2324C33.3506 34.102 32.3027 34.8036 31.1435 35.2834C30.0234 35.7451 28.7978 36 27.5151 36C26.2324 36 25.0069 35.7451 23.8868 35.2834C22.7215 34.8036 21.6767 34.102 20.8035 33.2324C19.9303 32.3628 19.2257 31.3193 18.7439 30.1619C18.2802 29.0465 18.0243 27.8261 18.0243 26.5487C18.0243 25.2714 18.2802 24.051 18.7439 22.9355C19.2257 21.7751 19.9303 20.7346 20.8035 19.8651C21.6767 18.9955 22.7245 18.2939 23.8838 17.8141C25.0039 17.3553 26.2264 17.1004 27.5121 17.1004ZM26.8015 22.5997C26.8015 22.3718 26.8949 22.1649 27.0454 22.015C27.196 21.8651 27.4037 21.7721 27.6356 21.7721C27.8674 21.7721 28.0752 21.8651 28.2257 22.015C28.3763 22.1649 28.4696 22.3718 28.4696 22.6027V27.0225L31.7878 28.9835L31.8149 29.0015C31.9986 29.1184 32.1191 29.2954 32.1672 29.4903C32.2184 29.6942 32.1943 29.916 32.0829 30.1079L32.0769 30.1169C32.0709 30.1289 32.0649 30.1379 32.0558 30.1469C31.9384 30.3268 31.7607 30.4468 31.568 30.4948C31.3633 30.5457 31.1405 30.5217 30.9478 30.4108L27.2381 28.2249C27.1086 28.1559 27.0002 28.051 26.922 27.928C26.8437 27.8021 26.7985 27.6552 26.7985 27.4993L26.8015 22.5997ZM33.0465 21.0375C32.3238 20.3178 31.4626 19.7391 30.5081 19.3463C29.5868 18.9655 28.575 18.7586 27.5121 18.7586C26.4492 18.7586 25.4375 18.9685 24.5161 19.3463C23.5616 19.7391 22.7004 20.3178 21.9778 21.0375C21.2551 21.7571 20.674 22.6147 20.2795 23.5652C19.8971 24.4828 19.6894 25.4903 19.6894 26.5487C19.6894 27.6072 19.9001 28.6147 20.2795 29.5322C20.674 30.4828 21.2551 31.3403 21.9778 32.06C22.7004 32.7796 23.5616 33.3583 24.5161 33.7511C25.4375 34.1319 26.4492 34.3388 27.5121 34.3388C28.575 34.3388 29.5868 34.1289 30.5081 33.7511C31.4626 33.3583 32.3238 32.7796 33.0465 32.06C34.4647 30.6477 35.3379 28.7016 35.3379 26.5487C35.3379 25.4903 35.1271 24.4828 34.7477 23.5652C34.3503 22.6147 33.7691 21.7571 33.0465 21.0375ZM4.04989 17.1994C3.96558 17.1994 3.8903 16.8306 3.8903 16.3778C3.8903 15.925 3.95654 15.5592 4.04989 15.5592H8.1088C8.19312 15.5592 8.26839 15.928 8.26839 16.3778C8.26839 16.8306 8.20215 17.1994 8.1088 17.1994H4.04989ZM10.5207 17.1994C10.4364 17.1994 10.3611 16.8306 10.3611 16.3778C10.3611 15.925 10.4273 15.5592 10.5207 15.5592H14.5796C14.6639 15.5592 14.7392 15.928 14.7392 16.3778C14.7392 16.8306 14.6729 17.1994 14.5796 17.1994H10.5207ZM16.9915 17.1994C16.9071 17.1994 16.8319 16.8306 16.8319 16.3778C16.8319 15.925 16.8981 15.5592 16.9915 15.5592H21.0504C21.1347 15.5592 21.21 15.925 21.21 16.3748C20.8035 16.6267 20.412 16.9025 20.0387 17.1994H16.9915ZM4.05892 21.9011C3.97461 21.9011 3.89933 21.5322 3.89933 21.0795C3.89933 20.6267 3.96558 20.2579 4.05892 20.2579H8.11784C8.20215 20.2579 8.27742 20.6267 8.27742 21.0795C8.27742 21.5322 8.21118 21.9011 8.11784 21.9011H4.05892ZM10.5297 21.9011C10.4454 21.9011 10.3701 21.5322 10.3701 21.0795C10.3701 20.6267 10.4364 20.2579 10.5297 20.2579H14.5886C14.6729 20.2579 14.7482 20.6267 14.7482 21.0795C14.7482 21.5322 14.682 21.9011 14.5886 21.9011H10.5297ZM4.06795 26.6057C3.98364 26.6057 3.90837 26.2369 3.90837 25.7841C3.90837 25.3313 3.97461 24.9625 4.06795 24.9625H8.12687C8.21118 24.9625 8.28646 25.3313 8.28646 25.7841C8.28646 26.2369 8.22021 26.6057 8.12687 26.6057H4.06795ZM10.5387 26.6057C10.4544 26.6057 10.3792 26.2369 10.3792 25.7841C10.3792 25.3313 10.4454 24.9625 10.5387 24.9625H14.5977C14.682 24.9625 14.7572 25.3313 14.7572 25.7841C14.7572 26.2369 14.691 26.6057 14.5977 26.6057H10.5387ZM7.61499 1.21439C7.61499 0.545727 8.27742 0 9.10246 0C9.92749 0 10.5899 0.542729 10.5899 1.21439V6.52774C10.5899 7.1964 9.92448 7.74213 9.10246 7.74213C8.27742 7.74213 7.61499 7.1994 7.61499 6.52774V1.21439ZM1.63802 11.6162H29.9661V5.49925C29.9661 5.28936 29.8818 5.10645 29.7463 4.97151C29.6108 4.83658 29.4181 4.75262 29.2164 4.75262H26.5004C26.0457 4.75262 25.6754 4.38381 25.6754 3.93103C25.6754 3.47826 26.0457 3.10945 26.5004 3.10945H29.2164C29.8818 3.10945 30.478 3.37631 30.9146 3.81109C31.3512 4.24588 31.6192 4.83958 31.6192 5.50225V15.2144C31.0772 15.0285 30.5202 14.8786 29.9481 14.7676V13.2504H29.9661H1.63802V29.0915C1.63802 29.3013 1.72233 29.4843 1.85783 29.6192C1.99333 29.7541 2.18603 29.8381 2.38778 29.8381H15.8503C16.0038 30.4078 16.1965 30.9625 16.4284 31.4963H2.40283C1.7404 31.4963 1.14119 31.2294 0.70459 30.7946C0.267985 30.3628 0 29.7691 0 29.1064V5.50525C0 4.84558 0.267985 4.24888 0.70459 3.81409C1.14119 3.37931 1.73739 3.11244 2.40283 3.11244H5.30249C5.75716 3.11244 6.12752 3.48126 6.12752 3.93403C6.12752 4.38681 5.75716 4.75562 5.30249 4.75562H2.40283C2.19206 4.75562 2.00838 4.83958 1.87288 4.97451C1.73739 5.10945 1.65308 5.30135 1.65308 5.50225V11.6192H1.63802V11.6162ZM12.9687 4.75262C12.514 4.75262 12.1436 4.38381 12.1436 3.93103C12.1436 3.47826 12.514 3.10945 12.9687 3.10945H18.497C18.9517 3.10945 19.322 3.47826 19.322 3.93103C19.322 4.38381 18.9517 4.75262 18.497 4.75262H12.9687Z" fill="url(#paint0_linear_3_93)"/>
</g>
<defs>
<linearGradient id="paint0_linear_3_93" x1="-1.37037" y1="1.01887" x2="34.3164" y2="33.9321" gradientUnits="userSpaceOnUse">
<stop stop-color="#C62A2A"/>
<stop offset="0.822917" stop-color="#C62A2A" stop-opacity="0.4"/>
</linearGradient>
<clipPath id="clip0_3_93">
<rect width="37" height="36" fill="white"/>
</clipPath>
</defs>
</svg>
