<svg width="28" height="28" viewBox="0 0 28 28" fill="none" xmlns="http://www.w3.org/2000/svg">
<path d="M24.5 10.43C24.4878 10.3228 24.4644 10.2172 24.43 10.115V10.01C24.3739 9.89004 24.2991 9.77977 24.2083 9.68333L17.2083 2.68333C17.1119 2.59258 17.0016 2.51776 16.8817 2.46166C16.8468 2.45672 16.8115 2.45672 16.7767 2.46166C16.6582 2.39369 16.5273 2.35006 16.3917 2.33333H11.6667C10.7384 2.33333 9.84817 2.70208 9.19179 3.35845C8.53542 4.01483 8.16667 4.90507 8.16667 5.83333V7H7C6.07174 7 5.1815 7.36874 4.52513 8.02512C3.86875 8.6815 3.5 9.57174 3.5 10.5V22.1667C3.5 23.0949 3.86875 23.9852 4.52513 24.6415C5.1815 25.2979 6.07174 25.6667 7 25.6667H16.3333C17.2616 25.6667 18.1518 25.2979 18.8082 24.6415C19.4646 23.9852 19.8333 23.0949 19.8333 22.1667V21H21C21.9283 21 22.8185 20.6312 23.4749 19.9749C24.1313 19.3185 24.5 18.4283 24.5 17.5V10.5C24.5 10.5 24.5 10.5 24.5 10.43ZM17.5 6.31166L20.5217 9.33333H18.6667C18.3572 9.33333 18.0605 9.21041 17.8417 8.99162C17.6229 8.77283 17.5 8.47608 17.5 8.16666V6.31166ZM17.5 22.1667C17.5 22.4761 17.3771 22.7728 17.1583 22.9916C16.9395 23.2104 16.6428 23.3333 16.3333 23.3333H7C6.69058 23.3333 6.39383 23.2104 6.17504 22.9916C5.95625 22.7728 5.83333 22.4761 5.83333 22.1667V10.5C5.83333 10.1906 5.95625 9.89383 6.17504 9.67504C6.39383 9.45625 6.69058 9.33333 7 9.33333H8.16667V17.5C8.16667 18.4283 8.53542 19.3185 9.19179 19.9749C9.84817 20.6312 10.7384 21 11.6667 21H17.5V22.1667ZM22.1667 17.5C22.1667 17.8094 22.0438 18.1062 21.825 18.325C21.6062 18.5437 21.3094 18.6667 21 18.6667H11.6667C11.3572 18.6667 11.0605 18.5437 10.8417 18.325C10.6229 18.1062 10.5 17.8094 10.5 17.5V5.83333C10.5 5.52391 10.6229 5.22716 10.8417 5.00837C11.0605 4.78958 11.3572 4.66666 11.6667 4.66666H15.1667V8.16666C15.1667 9.09492 15.5354 9.98516 16.1918 10.6415C16.8482 11.2979 17.7384 11.6667 18.6667 11.6667H22.1667V17.5Z" fill="#60CF6E"/>
</svg>
