<svg width="37" height="37" viewBox="0 0 37 37" fill="none" xmlns="http://www.w3.org/2000/svg">
<g clip-path="url(#clip0_4_62)">
<path d="M27.8622 22.526C27.6835 21.9209 27.4667 21.3942 27.212 20.947C26.9575 20.4993 26.593 20.0627 26.1178 19.6355C25.6432 19.2086 25.2162 18.8648 24.8376 18.6035C24.4592 18.3419 23.9395 18.0494 23.2786 17.7257C22.6183 17.4021 22.0951 17.1612 21.71 17.0029C21.3244 16.8447 20.7666 16.6279 20.037 16.3526C19.3901 16.1049 18.9084 15.9156 18.5915 15.7849C18.275 15.6541 17.8587 15.4684 17.3425 15.2273C16.8265 14.9866 16.441 14.7732 16.1863 14.5874C15.9316 14.4017 15.6599 14.1746 15.3707 13.9063C15.0816 13.6379 14.8786 13.3522 14.7615 13.0494C14.6447 12.7465 14.5861 12.4161 14.5861 12.0582C14.5861 11.1224 14.9989 10.3581 15.8248 9.76642C16.6508 9.1747 17.7177 8.87869 19.0255 8.87869C19.6033 8.87869 20.1925 8.95774 20.7908 9.11619C21.3892 9.27464 21.902 9.45313 22.3288 9.65288C22.7559 9.85263 23.1584 10.0729 23.5371 10.3137C23.9157 10.5546 24.184 10.7369 24.3424 10.8608C24.5007 10.9847 24.601 11.0672 24.6419 11.1086C24.8211 11.2462 25.0065 11.2943 25.1992 11.2532C25.4056 11.2394 25.5641 11.1292 25.6744 10.9229L27.3472 7.9083C27.5123 7.63312 27.4782 7.37153 27.244 7.12362C27.1613 7.04103 27.0584 6.94477 26.9337 6.83456C26.8101 6.72434 26.5416 6.52481 26.1283 6.2356C25.7154 5.94661 25.2784 5.6885 24.8176 5.46134C24.3562 5.2344 23.7573 5.0037 23.0208 4.76981C22.2847 4.53557 21.524 4.3774 20.7391 4.29489V0.660718C20.7391 0.468129 20.6773 0.309748 20.5538 0.185791C20.43 0.0621231 20.2716 0 20.0786 0H17.2909C17.112 0 16.9571 0.0653052 16.8264 0.196133C16.6956 0.32696 16.6303 0.481725 16.6303 0.660718V4.37733C14.469 4.79013 12.714 5.71243 11.365 7.14401C10.0161 8.57567 9.34146 10.241 9.34146 12.1408C9.34146 12.7051 9.40019 13.2419 9.5172 13.751C9.63407 14.2605 9.77871 14.7182 9.95083 15.1242C10.1228 15.5305 10.3673 15.9296 10.6838 16.322C11.0003 16.7142 11.2998 17.0515 11.5819 17.3336C11.8642 17.6156 12.2325 17.9082 12.6866 18.2109C13.141 18.5139 13.5298 18.7584 13.8534 18.9442C14.177 19.1293 14.6071 19.3434 15.1438 19.5837C15.6806 19.8247 16.1041 20.0069 16.4138 20.1311C16.7236 20.2548 17.1468 20.4271 17.6838 20.6469C18.4271 20.9359 18.9778 21.1597 19.3356 21.3181C19.6937 21.4765 20.1478 21.6967 20.6988 21.9789C21.2492 22.2608 21.6517 22.5189 21.9065 22.753C22.1612 22.9871 22.3917 23.2762 22.5983 23.6202C22.8049 23.9643 22.9084 24.3291 22.9084 24.7147C22.9084 25.8021 22.4851 26.6416 21.6383 27.2331C20.7919 27.8252 19.8108 28.1211 18.6959 28.1211C18.1871 28.1211 17.6774 28.0663 17.1683 27.9563C15.3788 27.5979 13.7064 26.7376 12.1509 25.3749L12.1096 25.3337C11.9856 25.1826 11.8204 25.1206 11.6141 25.1483C11.3938 25.1758 11.2355 25.2584 11.1392 25.3964L9.0124 28.1836C8.80586 28.4588 8.81982 28.741 9.05377 29.03C9.12269 29.1127 9.24311 29.2369 9.41508 29.4017C9.5875 29.5673 9.90759 29.825 10.3754 30.1767C10.8433 30.5278 11.3526 30.8578 11.9033 31.1679C12.454 31.4775 13.1525 31.7836 13.9992 32.0866C14.8459 32.389 15.7232 32.6023 16.6318 32.7261V36.3394C16.6318 36.5186 16.6972 36.6733 16.8279 36.8042C16.9587 36.9352 17.1135 37.0003 17.2924 37.0003H20.0801C20.2731 37.0003 20.4315 36.9385 20.5552 36.8147C20.679 36.691 20.7406 36.5326 20.7406 36.3395V32.7262C22.9296 32.3683 24.7088 31.4288 26.0783 29.9077C27.4479 28.3866 28.1329 26.573 28.1329 24.4671C28.1322 23.779 28.0428 23.132 27.8622 22.526Z" fill="url(#paint0_linear_4_62)"/>
</g>
<defs>
<linearGradient id="paint0_linear_4_62" x1="4" y1="1" x2="27" y2="35" gradientUnits="userSpaceOnUse">
<stop stop-color="#C62A2A"/>
<stop offset="1" stop-color="#C62A2A" stop-opacity="0.4"/>
</linearGradient>
<clipPath id="clip0_4_62">
<rect width="37" height="37" fill="white"/>
</clipPath>
</defs>
</svg>
