<svg width="37" height="37" viewBox="0 0 37 37" fill="none" xmlns="http://www.w3.org/2000/svg">
<path fill-rule="evenodd" clip-rule="evenodd" d="M26.8186 18.6531C28.0031 16.0631 28.6457 13.2584 28.7069 10.411C28.7628 4.71772 24.1933 0.0567949 18.5 0C12.8067 0.0567949 8.23717 4.71772 8.29311 10.411C8.33155 12.8487 8.81361 15.259 9.7157 17.524C10.4975 19.536 11.4806 21.4638 12.6502 23.2781C14.0961 25.547 15.7422 27.6819 17.5686 29.6574C17.809 29.9166 18.1465 30.064 18.5 30.064C18.8535 30.064 19.191 29.9166 19.4314 29.6574C20.6093 28.3824 21.7126 27.0405 22.7359 25.6384C24.3542 23.4703 25.7237 21.1272 26.8186 18.6531ZM22.9655 9.56896C22.9655 12.0352 20.9662 14.0345 18.5 14.0345C16.0338 14.0345 14.0345 12.0352 14.0345 9.56896C14.0345 7.10273 16.0338 5.10345 18.5 5.10345C20.9662 5.10345 22.9655 7.10273 22.9655 9.56896Z" fill="url(#paint0_linear_3_97)"/>
<defs>
<linearGradient id="paint0_linear_3_97" x1="8" y1="1.55915e-07" x2="29" y2="30" gradientUnits="userSpaceOnUse">
<stop offset="0.078125" stop-color="#C62A2A"/>
<stop offset="0.920856" stop-color="#C62A2A" stop-opacity="0.4"/>
</linearGradient>
</defs>
</svg>
