<svg width="30" height="30" viewBox="0 0 30 30" fill="none" xmlns="http://www.w3.org/2000/svg">
<g clip-path="url(#clip0_6_12)">
<path d="M25.7909 4.20914C23.0766 1.49479 19.4677 0 15.6291 0C11.7905 0 8.18162 1.49479 5.46727 4.20914C2.75291 6.9235 1.25818 10.5323 1.25818 14.3709C1.25818 16.8025 1.87371 19.1919 3.04207 21.3085L0 30L8.69139 26.958C10.808 28.1262 13.1975 28.7418 15.6291 28.7418C19.4677 28.7418 23.0766 27.247 25.7908 24.5327C28.5052 21.8184 30 18.2095 30 14.3709C30 10.5322 28.5052 6.92344 25.7909 4.20914ZM15.6291 26.9821C13.3734 26.9821 11.1595 26.3788 9.22676 25.2374L8.87467 25.0295L2.86828 27.1317L4.97051 21.1253L4.76256 20.7732C3.62121 18.8405 3.01793 16.6266 3.01793 14.3709C3.01793 7.41709 8.67533 1.75975 15.6291 1.75975C22.5829 1.75975 28.2403 7.41715 28.2403 14.3709C28.2403 21.3248 22.5829 26.9821 15.6291 26.9821Z" fill="#E1E1E6"/>
<path d="M23.3555 17.843L21.2817 15.7692C20.5957 15.0831 19.4793 15.0831 18.7931 15.7692L17.9998 16.5625C16.0734 15.5175 14.4824 13.9264 13.4374 12.0001L14.2306 11.2068C14.563 10.8744 14.746 10.4325 14.746 9.96246C14.746 9.49242 14.563 9.05051 14.2306 8.71817L12.1568 6.64436C11.8245 6.31201 11.3825 6.12897 10.9125 6.12897C10.4424 6.12897 10.0006 6.31201 9.66821 6.64436L8.00919 8.30338C7.07286 9.23971 7.0288 10.8559 7.88515 12.854C8.63327 14.5996 10.003 16.5186 11.7421 18.2577C13.4811 19.9968 15.4002 21.3665 17.1458 22.1146C18.0982 22.5227 18.9635 22.7264 19.71 22.7264C20.5299 22.7264 21.2064 22.4807 21.6964 21.9906L23.3554 20.3316C23.6878 19.9992 23.8708 19.5573 23.8708 19.0873C23.8708 18.6172 23.6878 18.1754 23.3555 17.843ZM20.4522 20.7464C20.0818 21.1167 19.0561 21.0189 17.839 20.4973C16.2943 19.8353 14.5709 18.598 12.9864 17.0135C11.4018 15.4289 10.1646 13.7055 9.50257 12.1608C8.98091 10.9437 8.88317 9.91799 9.25343 9.54762L10.9125 7.8886L12.9863 9.9624L11.3036 11.6452L11.569 12.2055C12.8593 14.9295 15.0701 17.1403 17.7942 18.4307L18.3546 18.6962L20.0373 17.0134L22.1111 19.0872L20.4522 20.7464Z" fill="#E1E1E6"/>
</g>
<defs>
<clipPath id="clip0_6_12">
<rect width="30" height="30" fill="white"/>
</clipPath>
</defs>
</svg>
